<svg xmlns="http://www.w3.org/2000/svg" viewBox="0 0 800 480" width="100%" height="100%">
  <defs>
    <linearGradient id="bg-grad" x1="0%" y1="0%" x2="100%" y2="100%">
      <stop offset="0%" stop-color="#060814" />
      <stop offset="100%" stop-color="#110b1a" />
    </linearGradient>
    <linearGradient id="salon-glow" x1="0%" y1="0%" x2="100%" y2="0%">
      <stop offset="0%" stop-color="#ec4899" stop-opacity="0.6" />
      <stop offset="100%" stop-color="#8b5cf6" stop-opacity="0.6" />
    </linearGradient>
    <filter id="blur-glow" x="-20%" y="-20%" width="140%" height="140%">
      <feGaussianBlur stdDeviation="25" result="blur" />
      <feComposite in="SourceGraphic" in2="blur" operator="over" />
    </filter>
  </defs>

  <rect width="800" height="480" fill="url(#bg-grad)" />

  <g opacity="0.04" stroke="#ffffff" stroke-width="1">
    <path d="M0,80 H800 M0,160 H800 M0,240 H800 M0,320 H800 M0,400 H800" />
    <path d="M133,0 V480 M266,0 V480 M400,0 V480 M533,0 V480 M666,0 V480" />
  </g>

  <circle cx="650" cy="160" r="130" fill="#ec4899" opacity="0.06" filter="url(#blur-glow)" />
  <circle cx="250" cy="320" r="150" fill="#7c3aed" opacity="0.05" filter="url(#blur-glow)" />

  <g transform="translate(80, 50)">
    <rect width="640" height="380" rx="24" fill="#000000" opacity="0.5" transform="translate(0, 15)" filter="url(#blur-glow)" />
    
    <rect width="640" height="380" rx="24" fill="#0f172a" fill-opacity="0.4" stroke="rgba(255,255,255,0.06)" stroke-width="1.5" />
    
    <path d="M 30 0 L 220 0" stroke="url(#salon-glow)" stroke-width="3" stroke-linecap="round" />

    <circle cx="32" cy="24" r="5" fill="#ef4444" opacity="0.6" />
    <circle cx="48" cy="24" r="5" fill="#f59e0b" opacity="0.6" />
    <circle cx="64" cy="24" r="5" fill="#10b981" opacity="0.6" />

    <g transform="translate(25, 65)">
      <rect width="365" height="290" rx="16" fill="rgba(15, 23, 42, 0.5)" stroke="rgba(255,255,255,0.04)" stroke-width="1" />
      
      <text x="24" y="38" font-family="system-ui, sans-serif" font-size="22" font-weight="800" fill="#ffffff" letter-spacing="-0.5">Elite Salon</text>
      <text x="24" y="58" font-family="monospace" font-size="10" fill="#ec4899" font-weight="600" letter-spacing="1.5">RESERVATION PLATFORM // v2.0</text>
      
      <g transform="translate(24, 85)">
        <text x="0" y="15" font-family="system-ui, sans-serif" font-size="12" font-weight="600" fill="#94a3b8">Booking Channels</text>
        
        <rect x="0" y="28" width="317" height="36" rx="10" fill="rgba(255,255,255,0.02)" stroke="rgba(255,255,255,0.03)" />
        <rect x="15" y="42" width="60" height="8" rx="4" fill="#ec4899" opacity="0.8" />
        <rect x="90" y="42" width="110" height="8" rx="4" fill="#cbd5e1" opacity="0.4" />
        <rect x="250" y="38" width="52" height="16" rx="8" fill="rgba(16, 185, 129, 0.15)" />
        <circle cx="258" cy="46" r="3" fill="#10b981" />
        <rect x="266" y="43" width="24" height="6" rx="3" fill="#10b981" />

        <rect x="0" y="74" width="317" height="36" rx="10" fill="rgba(2ec, 72, 153, 0.02)" stroke="rgba(255,255,255,0.03)" />
        <rect x="15" y="88" width="45" height="8" rx="4" fill="#a78bfa" opacity="0.8" />
        <rect x="75" y="88" width="130" height="8" rx="4" fill="#cbd5e1" opacity="0.4" />
        <rect x="250" y="84" width="52" height="16" rx="8" fill="rgba(16, 185, 129, 0.15)" />
        <circle cx="258" cy="92" r="3" fill="#10b981" />
        <rect x="266" y="89" width="24" height="6" rx="3" fill="#10b981" />

        <rect x="0" y="120" width="317" height="36" rx="10" fill="rgba(255,255,255,0.02)" stroke="rgba(255,255,255,0.03)" />
        <rect x="15" y="134" width="55" height="8" rx="4" fill="#6366f1" opacity="0.8" />
        <rect x="85" y="134" width="95" height="8" rx="4" fill="#cbd5e1" opacity="0.4" />
        <rect x="250" y="130" width="52" height="16" rx="8" fill="rgba(245, 158, 11, 0.15)" />
        <circle cx="258" cy="138" r="3" fill="#f59e0b" />
        <rect x="266" y="135" width="24" height="6" rx="3" fill="#f59e0b" />
      </g>
    </g>

    <g transform="translate(410, 65)">
      <rect width="205" height="290" rx="16" fill="rgba(15, 23, 42, 0.65)" stroke="rgba(236, 72, 153, 0.15)" stroke-width="1.5" />
      <rect x="0" y="0" width="205" height="40" rx="16" fill="rgba(236, 72, 153, 0.08)" />
      
      <circle cx="22" cy="20" r="4" fill="#ec4899" />
      <text x="34" y="24" font-family="system-ui, sans-serif" font-size="11" font-weight="700" fill="#f8fafc" letter-spacing="0.5">RAG Consultation</text>
      <rect x="150" y="12" width="40" height="16" rx="8" fill="#ec4899" opacity="0.2" />
      <text x="170" y="23" font-family="monospace" font-size="8" font-weight="bold" fill="#ec4899" text-anchor="middle">LIVE</text>

      <path d="M 25 75 L 145 75 A 8 8 0 0 1 153 83 L 153 95 A 8 8 0 0 1 145 103 L 33 103 A 8 8 0 0 1 25 95 Z" fill="rgba(255,255,255,0.04)" stroke="rgba(255,255,255,0.03)" />
      <rect x="37" y="84" width="95" height="5" rx="2.5" fill="#94a3b8" opacity="0.6" />
      <rect x="37" y="93" width="60" height="5" rx="2.5" fill="#94a3b8" opacity="0.6" />

      <path d="M 18 132 L 20 126 L 22 132 L 28 134 L 22 136 L 20 142 L 18 136 L 12 134 Z" fill="#ec4899" />
      
      <path d="M 50 125 L 180 125 A 8 8 0 0 1 188 133 L 188 165 A 8 8 0 0 1 180 173 L 58 173 A 8 8 0 0 1 50 165 Z" fill="rgba(236, 72, 153, 0.06)" stroke="rgba(236, 72, 153, 0.15)" />
      <rect x="62" y="134" width="105" height="5" rx="2.5" fill="#ec4899" opacity="0.8" />
      <rect x="62" y="144" width="112" height="5" rx="2.5" fill="#f8fafc" opacity="0.8" />
      <rect x="62" y="154" width="80" height="5" rx="2.5" fill="#f8fafc" opacity="0.8" />

      <rect x="15" y="240" width="175" height="34" rx="10" fill="#090d16" stroke="rgba(255,255,255,0.06)" stroke-width="1" />
      <rect x="28" y="254" width="85" height="6" rx="3" fill="#475569" />
      <circle cx="172" cy="257" r="7" fill="#ec4899" opacity="0.9" />
      <path d="M 169 257 L 172 254 L 175 257 M 172 254 L 172 261" fill="none" stroke="#ffffff" stroke-width="1.5" stroke-linecap="round" stroke-linejoin="round" />
    </g>
  </g>
</svg>
